<mxfile host="app.diagrams.net" modified="2023-04-17T02:16:29.940Z" agent="Mozilla/5.0 (Windows NT 10.0; Win64; x64) AppleWebKit/537.36 (KHTML, like Gecko) Chrome/112.0.0.0 Safari/537.36" etag="0IF9Uz8DsGOtxqO61SOs" version="21.1.8" type="github">
  <diagram name="Page-1" id="onjwb0JKYa4-4VWLuJun">
    <mxGraphModel dx="1467" dy="1922" grid="1" gridSize="10" guides="1" tooltips="1" connect="1" arrows="1" fold="1" page="1" pageScale="1" pageWidth="827" pageHeight="1169" math="0" shadow="0">
      <root>
        <mxCell id="0" />
        <mxCell id="1" parent="0" />
        <mxCell id="wSqmQa1260ScLGH2FIQq-1" value="" style="rounded=0;whiteSpace=wrap;html=1;" vertex="1" parent="1">
          <mxGeometry x="40" y="130" width="180" height="220" as="geometry" />
        </mxCell>
        <mxCell id="wSqmQa1260ScLGH2FIQq-3" value="" style="rounded=0;whiteSpace=wrap;html=1;" vertex="1" parent="1">
          <mxGeometry x="340" y="130" width="180" height="220" as="geometry" />
        </mxCell>
        <mxCell id="wSqmQa1260ScLGH2FIQq-4" value="" style="rounded=0;whiteSpace=wrap;html=1;" vertex="1" parent="1">
          <mxGeometry x="340" y="-170" width="180" height="220" as="geometry" />
        </mxCell>
        <mxCell id="wSqmQa1260ScLGH2FIQq-5" value="" style="shape=cylinder3;whiteSpace=wrap;html=1;boundedLbl=1;backgroundOutline=1;size=15;" vertex="1" parent="1">
          <mxGeometry x="630" y="130" width="160" height="220" as="geometry" />
        </mxCell>
      </root>
    </mxGraphModel>
  </diagram>
</mxfile>
